<mxfile host="65bd71144e">
    <diagram id="Rkga5OMyAgtltedxzgBL" name="Page-1">
        <mxGraphModel dx="1628" dy="667" grid="1" gridSize="10" guides="1" tooltips="1" connect="1" arrows="1" fold="1" page="1" pageScale="1" pageWidth="827" pageHeight="1169" math="0" shadow="0">
            <root>
                <mxCell id="0"/>
                <mxCell id="1" parent="0"/>
                <mxCell id="33" style="edgeStyle=elbowEdgeStyle;elbow=vertical;html=1;" parent="1" source="2" target="25" edge="1">
                    <mxGeometry relative="1" as="geometry"/>
                </mxCell>
                <mxCell id="2" value="Hallgató menü" style="rounded=0;whiteSpace=wrap;html=1;" parent="1" vertex="1">
                    <mxGeometry x="-330" y="280" width="120" height="60" as="geometry"/>
                </mxCell>
                <mxCell id="3" value="Kurzusok megtekintése" style="rounded=1;whiteSpace=wrap;html=1;" parent="1" vertex="1">
                    <mxGeometry x="-330" y="600" width="120" height="60" as="geometry"/>
                </mxCell>
                <mxCell id="20" style="edgeStyle=elbowEdgeStyle;elbow=vertical;html=1;exitX=0.5;exitY=1;exitDx=0;exitDy=0;" parent="1" source="17" target="19" edge="1">
                    <mxGeometry relative="1" as="geometry">
                        <mxPoint x="-190" y="660" as="sourcePoint"/>
                    </mxGeometry>
                </mxCell>
                <mxCell id="39" style="edgeStyle=elbowEdgeStyle;elbow=vertical;html=1;entryX=0.5;entryY=0;entryDx=0;entryDy=0;" edge="1" parent="1" source="17" target="38">
                    <mxGeometry relative="1" as="geometry"/>
                </mxCell>
                <mxCell id="41" style="edgeStyle=elbowEdgeStyle;elbow=vertical;html=1;entryX=0.5;entryY=0;entryDx=0;entryDy=0;" edge="1" parent="1" source="17" target="40">
                    <mxGeometry relative="1" as="geometry"/>
                </mxCell>
                <mxCell id="17" value="Egy Kurzus menüje" style="rounded=0;whiteSpace=wrap;html=1;" parent="1" vertex="1">
                    <mxGeometry x="-180" y="600" width="120" height="60" as="geometry"/>
                </mxCell>
                <mxCell id="19" value="Kurzusfórum használata" style="rounded=1;whiteSpace=wrap;html=1;" parent="1" vertex="1">
                    <mxGeometry x="-180" y="770" width="120" height="60" as="geometry"/>
                </mxCell>
                <mxCell id="26" style="edgeStyle=elbowEdgeStyle;elbow=vertical;html=1;" parent="1" source="25" target="3" edge="1">
                    <mxGeometry relative="1" as="geometry"/>
                </mxCell>
                <mxCell id="32" style="edgeStyle=elbowEdgeStyle;elbow=vertical;html=1;" parent="1" source="25" target="17" edge="1">
                    <mxGeometry relative="1" as="geometry"/>
                </mxCell>
                <mxCell id="37" style="edgeStyle=elbowEdgeStyle;elbow=vertical;html=1;" edge="1" parent="1" source="25" target="35">
                    <mxGeometry relative="1" as="geometry"/>
                </mxCell>
                <mxCell id="25" value="Kurzusok menü" style="rounded=0;whiteSpace=wrap;html=1;" parent="1" vertex="1">
                    <mxGeometry x="-330" y="420" width="120" height="60" as="geometry"/>
                </mxCell>
                <mxCell id="35" value="Kurzusra jelentkezés" style="rounded=1;whiteSpace=wrap;html=1;" vertex="1" parent="1">
                    <mxGeometry x="-500" y="600" width="120" height="60" as="geometry"/>
                </mxCell>
                <mxCell id="38" value="Tananyag megtekintése" style="rounded=1;whiteSpace=wrap;html=1;" vertex="1" parent="1">
                    <mxGeometry x="-330" y="770" width="120" height="60" as="geometry"/>
                </mxCell>
                <mxCell id="40" value="Vizsgaidőpontok megtekintése" style="rounded=1;whiteSpace=wrap;html=1;" vertex="1" parent="1">
                    <mxGeometry x="-473" y="770" width="120" height="60" as="geometry"/>
                </mxCell>
            </root>
        </mxGraphModel>
    </diagram>
</mxfile>